<?xml version="1.0" encoding="UTF-8" standalone="no"?>
<svg width="145px" height="146px" viewBox="0 0 145 146" version="1.1" xmlns="http://www.w3.org/2000/svg" xmlns:xlink="http://www.w3.org/1999/xlink">
    <!-- Generator: Sketch 3.6.1 (26313) - http://www.bohemiancoding.com/sketch -->
    <title>Group 2</title>
    <desc>Created with Sketch.</desc>
    <defs></defs>
    <g id="Brand" stroke="none" stroke-width="1" fill="none" fill-rule="evenodd">
        <g id="Label" transform="translate(-640.000000, -251.000000)" stroke="#1C1C1C" stroke-width="5">
            <g id="Group-2" transform="translate(643.000000, 256.000000)">
                <g id="Group" transform="translate(0.028429, 0.293610)">
                    <path d="M15.7235151,5.01217168 C32.5549221,-11.2576769 70.6771046,19.4545095 70.6771046,19.4545095 C70.6771046,19.4545095 97.8769111,-11.9133244 120.914505,5.01217168 C143.952098,21.9376678 83.0777983,72.3192722 79.3942047,75.0257294 C73.4261345,79.4106667 61.0110768,78.1562821 57.0846313,75.0257295 C52.7823281,71.5955058 -1.10789183,21.2820203 15.7235151,5.01217168 Z" id="Oval-1" fill="#C5FFBD"></path>
                    <path d="M69.7380225,137.386263 C108.253269,137.386263 139.476045,106.071877 139.476045,67.443624 C139.476045,61.1928549 -3.03753456e-09,63.1229512 0,67.443624 C2.71565749e-08,106.071877 31.2227762,137.386263 69.7380225,137.386263 Z" id="Oval-1" fill="#FFFFFA"></path>
                </g>
            </g>
        </g>
    </g>
</svg>