<?xml version="1.0" encoding="UTF-8" standalone="no"?>
<svg width="223px" height="223px" viewBox="0 0 223 223" version="1.1" xmlns="http://www.w3.org/2000/svg" xmlns:xlink="http://www.w3.org/1999/xlink">
    <!-- Generator: Sketch 3.6.1 (26313) - http://www.bohemiancoding.com/sketch -->
    <title>Group 2</title>
    <desc>Created with Sketch.</desc>
    <defs></defs>
    <g id="Brand" stroke="none" stroke-width="1" fill="none" fill-rule="evenodd">
        <g id="Desktop-HD" transform="translate(-834.000000, -422.000000)" stroke-width="6" stroke="#1C1C1C">
            <g id="Group-2" transform="translate(837.000000, 428.000000)">
                <g id="Group">
                    <path d="M24.4514331,7.78994966 C50.6257344,-17.4967543 109.909043,30.2363246 109.909043,30.2363246 C109.909043,30.2363246 152.207107,-18.5157659 188.032567,7.78994966 C223.858028,34.0956652 129.1932,112.399081 123.464891,116.605474 C114.184023,123.420572 94.877529,121.470999 88.7715648,116.605474 C82.0811094,111.274198 -1.72286812,33.0766536 24.4514331,7.78994966 Z" id="Oval-1" fill="#C5FFBD"></path>
                    <path d="M108.448688,213.526619 C168.343245,213.526619 216.897377,164.857597 216.897377,104.821317 C216.897377,95.106331 -4.72363033e-09,98.1060991 0,104.821317 C4.2230835e-08,164.857597 48.5541317,213.526619 108.448688,213.526619 Z" id="Oval-1" fill="#FFFFFA"></path>
                </g>
            </g>
        </g>
    </g>
</svg>