<?xml version="1.0" encoding="UTF-8" standalone="no"?>
<svg width="869px" height="386px" viewBox="0 0 869 386" version="1.1" xmlns="http://www.w3.org/2000/svg" xmlns:xlink="http://www.w3.org/1999/xlink">
    <!-- Generator: Sketch 3.6.1 (26313) - http://www.bohemiancoding.com/sketch -->
    <title>love_people</title>
    <desc>Created with Sketch.</desc>
    <defs></defs>
    <g id="Brand" stroke="none" stroke-width="1" fill="none" fill-rule="evenodd">
        <g id="Desktop-HD" transform="translate(-511.000000, -331.000000)" fill="#FFFFFF">
            <g id="love_people" transform="translate(511.000000, 331.000000)">
                <rect id="Rectangle-2" x="0" y="0" width="869" height="13"></rect>
                <path d="M67.484375,221 L16.078125,221 L16.078125,131.654297 L28.4511719,131.654297 L28.4511719,210.609375 L67.484375,210.609375 L67.484375,221 Z M152.335938,175.746094 C152.335938,183.766967 151.390309,190.693981 149.499023,196.527344 C147.607738,202.360706 145.05568,207.179994 141.842773,210.985352 C138.629867,214.790709 134.870139,217.616202 130.563477,219.461914 C126.256814,221.307626 121.710961,222.230469 116.925781,222.230469 C111.183565,222.230469 106.181987,221.193695 101.920898,219.120117 C97.6598094,217.046539 94.1279437,214.05015 91.3251953,210.130859 C88.5224469,206.211569 86.4375068,201.437854 85.0703125,195.80957 C83.7031182,190.181287 83.0195312,183.835322 83.0195312,176.771484 C83.0195312,168.841757 83.9537667,161.960316 85.8222656,156.126953 C87.6907646,150.293591 90.2314292,145.474303 93.4443359,141.668945 C96.6572426,137.863588 100.405578,135.038095 104.689453,133.192383 C108.973329,131.34667 113.507789,130.423828 118.292969,130.423828 C124.035185,130.423828 129.036763,131.471995 133.297852,133.568359 C137.558941,135.664724 141.102199,138.661113 143.927734,142.557617 C146.753269,146.454121 148.860996,151.20505 150.250977,156.810547 C151.640957,162.416044 152.335938,168.727829 152.335938,175.746094 L152.335938,175.746094 Z M139.689453,176.634766 C139.689453,171.393854 139.290694,166.597352 138.493164,162.245117 C137.695634,157.892882 136.408212,154.144547 134.630859,151 C132.853507,147.855453 130.563491,145.417326 127.760742,143.685547 C124.957994,141.953767 121.574239,141.087891 117.609375,141.087891 C113.781231,141.087891 110.488621,142.010733 107.731445,143.856445 C104.97427,145.702158 102.70704,148.208643 100.929688,151.375977 C99.1523349,154.54331 97.8307335,158.257466 96.9648438,162.518555 C96.098954,166.779644 95.6660156,171.30271 95.6660156,176.087891 C95.6660156,181.374375 96.0761678,186.193663 96.8964844,190.545898 C97.716801,194.898134 99.004223,198.635076 100.758789,201.756836 C102.513355,204.878596 104.780585,207.30533 107.560547,209.037109 C110.340509,210.768889 113.690085,211.634766 117.609375,211.634766 C121.437519,211.634766 124.741523,210.711923 127.521484,208.866211 C130.301446,207.020499 132.591462,204.514013 134.391602,201.34668 C136.191741,198.179346 137.524735,194.476584 138.390625,190.238281 C139.256515,185.999979 139.689453,181.465519 139.689453,176.634766 L139.689453,176.634766 Z M234.794922,131.654297 L204.443359,221 L188.037109,221 L158.369141,131.654297 L172.109375,131.654297 L191.386719,191.878906 L196.855469,209.515625 L202.460938,191.878906 L221.806641,131.654297 L234.794922,131.654297 Z M301.599609,221 L250.808594,221 L250.808594,131.654297 L301.599609,131.654297 L301.599609,141.908203 L262.976562,141.908203 L262.976562,169.59375 L300.095703,169.59375 L300.095703,179.847656 L262.976562,179.847656 L262.976562,210.609375 L301.599609,210.609375 L301.599609,221 Z M464.466797,158.998047 C464.466797,162.643898 463.78321,166.255516 462.416016,169.833008 C461.048821,173.4105 458.929702,176.611965 456.058594,179.4375 C453.187486,182.263035 449.518903,184.553051 445.052734,186.307617 C440.586566,188.062183 435.254588,188.939453 429.056641,188.939453 L417.982422,188.939453 L417.982422,221 L405.814453,221 L405.814453,131.654297 L430.970703,131.654297 C435.391298,131.654297 439.629537,132.144201 443.685547,133.124023 C447.741557,134.103846 451.307602,135.687489 454.383789,137.875 C457.459976,140.062511 459.909496,142.888004 461.732422,146.351562 C463.555348,149.815121 464.466797,154.030574 464.466797,158.998047 L464.466797,158.998047 Z M451.820312,159.544922 C451.820312,153.802706 449.940448,149.404963 446.180664,146.351562 C442.42088,143.298162 437.168654,141.771484 430.423828,141.771484 L417.982422,141.771484 L417.982422,178.548828 L429.330078,178.548828 C436.530635,178.548828 442.079082,176.976578 445.975586,173.832031 C449.87209,170.687484 451.820312,165.925162 451.820312,159.544922 L451.820312,159.544922 Z M538.517578,221 L487.726562,221 L487.726562,131.654297 L538.517578,131.654297 L538.517578,141.908203 L499.894531,141.908203 L499.894531,169.59375 L537.013672,169.59375 L537.013672,179.847656 L499.894531,179.847656 L499.894531,210.609375 L538.517578,210.609375 L538.517578,221 Z M626.171875,175.746094 C626.171875,183.766967 625.226246,190.693981 623.334961,196.527344 C621.443675,202.360706 618.891618,207.179994 615.678711,210.985352 C612.465804,214.790709 608.706076,217.616202 604.399414,219.461914 C600.092752,221.307626 595.546899,222.230469 590.761719,222.230469 C585.019503,222.230469 580.017925,221.193695 575.756836,219.120117 C571.495747,217.046539 567.963881,214.05015 565.161133,210.130859 C562.358384,206.211569 560.273444,201.437854 558.90625,195.80957 C557.539056,190.181287 556.855469,183.835322 556.855469,176.771484 C556.855469,168.841757 557.789704,161.960316 559.658203,156.126953 C561.526702,150.293591 564.067367,145.474303 567.280273,141.668945 C570.49318,137.863588 574.241515,135.038095 578.525391,133.192383 C582.809266,131.34667 587.343726,130.423828 592.128906,130.423828 C597.871122,130.423828 602.8727,131.471995 607.133789,133.568359 C611.394878,135.664724 614.938137,138.661113 617.763672,142.557617 C620.589207,146.454121 622.696933,151.20505 624.086914,156.810547 C625.476895,162.416044 626.171875,168.727829 626.171875,175.746094 L626.171875,175.746094 Z M613.525391,176.634766 C613.525391,171.393854 613.126632,166.597352 612.329102,162.245117 C611.531572,157.892882 610.24415,154.144547 608.466797,151 C606.689444,147.855453 604.399428,145.417326 601.59668,143.685547 C598.793931,141.953767 595.410176,141.087891 591.445312,141.087891 C587.617168,141.087891 584.324558,142.010733 581.567383,143.856445 C578.810208,145.702158 576.542978,148.208643 574.765625,151.375977 C572.988272,154.54331 571.666671,158.257466 570.800781,162.518555 C569.934892,166.779644 569.501953,171.30271 569.501953,176.087891 C569.501953,181.374375 569.912105,186.193663 570.732422,190.545898 C571.552738,194.898134 572.84016,198.635076 574.594727,201.756836 C576.349293,204.878596 578.616523,207.30533 581.396484,209.037109 C584.176446,210.768889 587.526022,211.634766 591.445312,211.634766 C595.273457,211.634766 598.57746,210.711923 601.357422,208.866211 C604.137384,207.020499 606.4274,204.514013 608.227539,201.34668 C610.027678,198.179346 611.360673,194.476584 612.226562,190.238281 C613.092452,185.999979 613.525391,181.465519 613.525391,176.634766 L613.525391,176.634766 Z M701.384766,158.998047 C701.384766,162.643898 700.701179,166.255516 699.333984,169.833008 C697.96679,173.4105 695.847671,176.611965 692.976562,179.4375 C690.105454,182.263035 686.436871,184.553051 681.970703,186.307617 C677.504535,188.062183 672.172557,188.939453 665.974609,188.939453 L654.900391,188.939453 L654.900391,221 L642.732422,221 L642.732422,131.654297 L667.888672,131.654297 C672.309267,131.654297 676.547506,132.144201 680.603516,133.124023 C684.659525,134.103846 688.225571,135.687489 691.301758,137.875 C694.377945,140.062511 696.827465,142.888004 698.650391,146.351562 C700.473316,149.815121 701.384766,154.030574 701.384766,158.998047 L701.384766,158.998047 Z M688.738281,159.544922 C688.738281,153.802706 686.858417,149.404963 683.098633,146.351562 C679.338848,143.298162 674.086622,141.771484 667.341797,141.771484 L654.900391,141.771484 L654.900391,178.548828 L666.248047,178.548828 C673.448604,178.548828 678.997051,176.976578 682.893555,173.832031 C686.790059,170.687484 688.738281,165.925162 688.738281,159.544922 L688.738281,159.544922 Z M778.238281,221 L726.832031,221 L726.832031,131.654297 L739.205078,131.654297 L739.205078,210.609375 L778.238281,210.609375 L778.238281,221 Z M854.408203,221 L803.617188,221 L803.617188,131.654297 L854.408203,131.654297 L854.408203,141.908203 L815.785156,141.908203 L815.785156,169.59375 L852.904297,169.59375 L852.904297,179.847656 L815.785156,179.847656 L815.785156,210.609375 L854.408203,210.609375 L854.408203,221 Z M65.5449219,305.044922 L27.6054688,305.044922 L27.6054688,334.029297 L63.5625,334.029297 L63.5625,344.214844 L27.6054688,344.214844 L27.6054688,384 L15.1640625,384 L15.1640625,294.654297 L65.5449219,294.654297 L65.5449219,305.044922 Z M144.654297,384 L93.8632812,384 L93.8632812,294.654297 L144.654297,294.654297 L144.654297,304.908203 L106.03125,304.908203 L106.03125,332.59375 L143.150391,332.59375 L143.150391,342.847656 L106.03125,342.847656 L106.03125,373.609375 L144.654297,373.609375 L144.654297,384 Z M223.626953,384 L172.835938,384 L172.835938,294.654297 L223.626953,294.654297 L223.626953,304.908203 L185.003906,304.908203 L185.003906,332.59375 L222.123047,332.59375 L222.123047,342.847656 L185.003906,342.847656 L185.003906,373.609375 L223.626953,373.609375 L223.626953,384 Z M310.050781,338.335938 C310.050781,342.619813 309.720381,346.721335 309.05957,350.640625 C308.39876,354.559915 307.3392,358.205712 305.880859,361.578125 C304.422519,364.950538 302.531262,368.015286 300.207031,370.772461 C297.882801,373.529636 295.034522,375.888011 291.662109,377.847656 C288.289697,379.807301 284.370465,381.322586 279.904297,382.393555 C275.438129,383.464524 270.356799,384 264.660156,384 L245.519531,384 L245.519531,294.654297 L268.556641,294.654297 C282.502023,294.654297 292.903937,298.243128 299.762695,305.420898 C306.621454,312.598669 310.050781,323.570239 310.050781,338.335938 L310.050781,338.335938 Z M297.267578,339.224609 C297.267578,332.889942 296.675136,327.535178 295.490234,323.160156 C294.305333,318.785134 292.50522,315.253269 290.089844,312.564453 C287.674467,309.875638 284.643898,307.927415 280.998047,306.719727 C277.352195,305.512038 273.068384,304.908203 268.146484,304.908203 L257.6875,304.908203 L257.6875,373.472656 L266.779297,373.472656 C287.104919,373.472656 297.267578,362.056755 297.267578,339.224609 L297.267578,339.224609 Z M465.466797,321.998047 C465.466797,325.643898 464.78321,329.255516 463.416016,332.833008 C462.048821,336.4105 459.929702,339.611965 457.058594,342.4375 C454.187486,345.263035 450.518903,347.553051 446.052734,349.307617 C441.586566,351.062183 436.254588,351.939453 430.056641,351.939453 L418.982422,351.939453 L418.982422,384 L406.814453,384 L406.814453,294.654297 L431.970703,294.654297 C436.391298,294.654297 440.629537,295.144201 444.685547,296.124023 C448.741557,297.103846 452.307602,298.687489 455.383789,300.875 C458.459976,303.062511 460.909496,305.888004 462.732422,309.351562 C464.555348,312.815121 465.466797,317.030574 465.466797,321.998047 L465.466797,321.998047 Z M452.820312,322.544922 C452.820312,316.802706 450.940448,312.404963 447.180664,309.351562 C443.42088,306.298162 438.168654,304.771484 431.423828,304.771484 L418.982422,304.771484 L418.982422,341.548828 L430.330078,341.548828 C437.530635,341.548828 443.079082,339.976578 446.975586,336.832031 C450.87209,333.687484 452.820312,328.925162 452.820312,322.544922 L452.820312,322.544922 Z M539.517578,384 L488.726562,384 L488.726562,294.654297 L539.517578,294.654297 L539.517578,304.908203 L500.894531,304.908203 L500.894531,332.59375 L538.013672,332.59375 L538.013672,342.847656 L500.894531,342.847656 L500.894531,373.609375 L539.517578,373.609375 L539.517578,384 Z M627.171875,338.746094 C627.171875,346.766967 626.226246,353.693981 624.334961,359.527344 C622.443675,365.360706 619.891618,370.179994 616.678711,373.985352 C613.465804,377.790709 609.706076,380.616202 605.399414,382.461914 C601.092752,384.307626 596.546899,385.230469 591.761719,385.230469 C586.019503,385.230469 581.017925,384.193695 576.756836,382.120117 C572.495747,380.046539 568.963881,377.05015 566.161133,373.130859 C563.358384,369.211569 561.273444,364.437854 559.90625,358.80957 C558.539056,353.181287 557.855469,346.835322 557.855469,339.771484 C557.855469,331.841757 558.789704,324.960316 560.658203,319.126953 C562.526702,313.293591 565.067367,308.474303 568.280273,304.668945 C571.49318,300.863588 575.241515,298.038095 579.525391,296.192383 C583.809266,294.34667 588.343726,293.423828 593.128906,293.423828 C598.871122,293.423828 603.8727,294.471995 608.133789,296.568359 C612.394878,298.664724 615.938137,301.661113 618.763672,305.557617 C621.589207,309.454121 623.696933,314.20505 625.086914,319.810547 C626.476895,325.416044 627.171875,331.727829 627.171875,338.746094 L627.171875,338.746094 Z M614.525391,339.634766 C614.525391,334.393854 614.126632,329.597352 613.329102,325.245117 C612.531572,320.892882 611.24415,317.144547 609.466797,314 C607.689444,310.855453 605.399428,308.417326 602.59668,306.685547 C599.793931,304.953767 596.410176,304.087891 592.445312,304.087891 C588.617168,304.087891 585.324558,305.010733 582.567383,306.856445 C579.810208,308.702158 577.542978,311.208643 575.765625,314.375977 C573.988272,317.54331 572.666671,321.257466 571.800781,325.518555 C570.934892,329.779644 570.501953,334.30271 570.501953,339.087891 C570.501953,344.374375 570.912105,349.193663 571.732422,353.545898 C572.552738,357.898134 573.84016,361.635076 575.594727,364.756836 C577.349293,367.878596 579.616523,370.30533 582.396484,372.037109 C585.176446,373.768889 588.526022,374.634766 592.445312,374.634766 C596.273457,374.634766 599.57746,373.711923 602.357422,371.866211 C605.137384,370.020499 607.4274,367.514013 609.227539,364.34668 C611.027678,361.179346 612.360673,357.476584 613.226562,353.238281 C614.092452,348.999979 614.525391,344.465519 614.525391,339.634766 L614.525391,339.634766 Z M702.384766,321.998047 C702.384766,325.643898 701.701179,329.255516 700.333984,332.833008 C698.96679,336.4105 696.847671,339.611965 693.976562,342.4375 C691.105454,345.263035 687.436871,347.553051 682.970703,349.307617 C678.504535,351.062183 673.172557,351.939453 666.974609,351.939453 L655.900391,351.939453 L655.900391,384 L643.732422,384 L643.732422,294.654297 L668.888672,294.654297 C673.309267,294.654297 677.547506,295.144201 681.603516,296.124023 C685.659525,297.103846 689.225571,298.687489 692.301758,300.875 C695.377945,303.062511 697.827465,305.888004 699.650391,309.351562 C701.473316,312.815121 702.384766,317.030574 702.384766,321.998047 L702.384766,321.998047 Z M689.738281,322.544922 C689.738281,316.802706 687.858417,312.404963 684.098633,309.351562 C680.338848,306.298162 675.086622,304.771484 668.341797,304.771484 L655.900391,304.771484 L655.900391,341.548828 L667.248047,341.548828 C674.448604,341.548828 679.997051,339.976578 683.893555,336.832031 C687.790059,333.687484 689.738281,328.925162 689.738281,322.544922 L689.738281,322.544922 Z M779.238281,384 L727.832031,384 L727.832031,294.654297 L740.205078,294.654297 L740.205078,373.609375 L779.238281,373.609375 L779.238281,384 Z M855.408203,384 L804.617188,384 L804.617188,294.654297 L855.408203,294.654297 L855.408203,304.908203 L816.785156,304.908203 L816.785156,332.59375 L853.904297,332.59375 L853.904297,342.847656 L816.785156,342.847656 L816.785156,373.609375 L855.408203,373.609375 L855.408203,384 Z" id="LOVE-PEOPLE-FEED-PEO"></path>
            </g>
        </g>
    </g>
</svg>