<?xml version="1.0" encoding="UTF-8" standalone="no"?>
<svg width="579px" height="467px" viewBox="0 0 579 467" version="1.1" xmlns="http://www.w3.org/2000/svg" xmlns:xlink="http://www.w3.org/1999/xlink">
    <!-- Generator: Sketch 3.6.1 (26313) - http://www.bohemiancoding.com/sketch -->
    <title>main_image</title>
    <desc>Created with Sketch.</desc>
    <defs></defs>
    <g id="Brand" stroke="none" stroke-width="1" fill="none" fill-rule="evenodd">
        <g id="Label" transform="translate(-435.000000, -251.000000)">
            <g id="main_image" transform="translate(423.028429, 256.293610)">
                <path d="M235.723515,5.01217168 C252.554922,-11.2576769 290.677105,19.4545095 290.677105,19.4545095 C290.677105,19.4545095 317.876911,-11.9133244 340.914505,5.01217168 C363.952098,21.9376678 303.077798,72.3192722 299.394205,75.0257294 C293.426135,79.4106667 281.011077,78.1562821 277.084631,75.0257295 C272.782328,71.5955058 218.892108,21.2820203 235.723515,5.01217168 Z" id="Oval-1" stroke="#1C1C1C" stroke-width="5" fill="#C5FFBD"></path>
                <path d="M289.738023,137.386263 C328.253269,137.386263 359.476045,106.071877 359.476045,67.443624 C359.476045,61.1928549 220,63.1229512 220,67.443624 C220,106.071877 251.222776,137.386263 289.738023,137.386263 Z" id="Oval-1" stroke="#1C1C1C" stroke-width="5" fill="#FFFFFA"></path>
                <text id="ketokyo" font-family="Consolas-Bold, Consolas" font-size="160" font-weight="bold" letter-spacing="-3.44858599" fill="#1C1C1C">
                    <tspan x="0.971571472" y="294.70639">ketokyo</tspan>
                </text>
                <text id="CONSCIOUS-FOOD" font-family="Consolas-Bold, Consolas" font-size="60" font-weight="bold" fill="#1C1C1C">
                    <tspan x="66.0536027" y="451.70639">CONSCIOUS FOOD</tspan>
                </text>
            </g>
        </g>
    </g>
</svg>